<?xml version="1.0" encoding="UTF-8"?>
<svg id="Layer_1" data-name="Layer 1" xmlns="http://www.w3.org/2000/svg" xmlns:xlink="http://www.w3.org/1999/xlink" version="1.1" viewBox="0 0 512 512">
  <defs>
    <style>
      .cls-1 {
        fill: url(#linear-gradient);
      }

      .cls-1, .cls-2 {
        stroke-width: 0px;
      }

      .cls-2 {
        fill: url(#linear-gradient-2);
      }
    </style>
    <linearGradient id="linear-gradient" x1="108.9" y1="121.5" x2="439.5" y2="423.9" gradientTransform="translate(0 512) scale(1 -1)" gradientUnits="userSpaceOnUse">
      <stop offset="0" stop-color="#e1f2bd"/>
      <stop offset=".3" stop-color="#e6e6aa"/>
      <stop offset="1" stop-color="#f2c879"/>
    </linearGradient>
    <linearGradient id="linear-gradient-2" x1="201" y1="200.6" x2="385.1" y2="386" gradientTransform="translate(0 512) scale(1 -1)" gradientUnits="userSpaceOnUse">
      <stop offset="0" stop-color="#e1f2bd"/>
      <stop offset="1" stop-color="#f2c879"/>
    </linearGradient>
  </defs>
  <path class="cls-1" d="M349.3,69.3c51.5.2,93.2,41.9,93.3,93.3v186.7c-.2,51.5-41.9,93.2-93.3,93.3h-186.7c-51.5-.2-93.2-41.9-93.3-93.3v-186.7c.2-51.5,41.9-93.2,93.3-93.3h186.7M349.3,32h-186.7c-71.9,0-130.7,58.8-130.7,130.7v186.7c0,71.9,58.8,130.7,130.7,130.7h186.7c71.9,0,130.7-58.8,130.7-130.7v-186.7c0-71.9-58.8-130.7-130.7-130.7h0Z"/>
  <path class="cls-2" d="M377.3,162.7c-15.5,0-28-12.5-28-28s12.5-28,28-28,28,12.5,28,28-12.4,28-27.9,28h-.1ZM256,181.3c41.2,0,74.7,33.4,74.7,74.7s-33.4,74.7-74.7,74.7-74.7-33.4-74.7-74.7,33.4-74.6,74.7-74.7M256,144c-61.9,0-112,50.1-112,112s50.1,112,112,112,112-50.1,112-112-50.1-112-112-112Z"/>
</svg>