<?xml version="1.0" encoding="UTF-8"?>
<svg id="Layer_1" data-name="Layer 1" xmlns="http://www.w3.org/2000/svg" xmlns:xlink="http://www.w3.org/1999/xlink" version="1.1" viewBox="0 0 512 512">
  <defs>
    <style>
      .cls-1 {
        fill: url(#linear-gradient);
        stroke-width: 0px;
      }
    </style>
    <linearGradient id="linear-gradient" x1="116.7" y1="118.5" x2="435.2" y2="433.6" gradientTransform="translate(0 512) scale(1 -1)" gradientUnits="userSpaceOnUse">
      <stop offset="0" stop-color="#e1f2bd"/>
      <stop offset="1" stop-color="#f2c879"/>
    </linearGradient>
  </defs>
  <path class="cls-1" d="M444.2,32H70.3c-20.4,0-38.3,14.7-38.3,34.9v374.7c0,20.3,17.8,38.4,38.3,38.4h373.8c20.5,0,35.9-18.2,35.9-38.4V66.9c.1-20.2-15.4-34.9-35.8-34.9h0ZM170.9,405.4h-64.2v-199.5h64.2v199.5ZM141,175.5h-.5c-20.5,0-33.8-15.3-33.8-34.4s13.7-34.4,34.7-34.4,33.9,14.8,34.3,34.4c0,19.1-13.3,34.4-34.7,34.4h0ZM405.4,405.4h-64.2v-109.1c0-26.1-9.3-44-32.6-44s-28.2,12-32.9,23.7c-1.8,4.2-2.2,9.9-2.2,15.8v113.7h-64.2v-199.6h64.2v27.8c9.3-13.3,23.9-32.4,57.9-32.4s74,27.8,74,87.6v116.6h0Z"/>
</svg>