<?xml version="1.0" encoding="UTF-8"?>
<svg id="Layer_1" data-name="Layer 1" xmlns="http://www.w3.org/2000/svg" xmlns:xlink="http://www.w3.org/1999/xlink" version="1.1" viewBox="0 0 512 512">
  <defs>
    <style>
      .cls-1 {
        fill: url(#linear-gradient);
        stroke-width: 0px;
      }
    </style>
    <linearGradient id="linear-gradient" x1="124.3" y1="107.2" x2="427.7" y2="436.8" gradientTransform="translate(0 512) scale(1 -1)" gradientUnits="userSpaceOnUse">
      <stop offset="0" stop-color="#e1f2bd"/>
      <stop offset="1" stop-color="#f2c879"/>
    </linearGradient>
  </defs>
  <path class="cls-1" d="M256,32c-123.7,0-224,102.9-224,229.7s64.2,187.5,153.2,217.9c1.2.3,2.5.4,3.8.4,8.3,0,11.5-6.1,11.5-11.4s-.2-19.9-.3-39.1c-7.4,1.7-15,2.6-22.6,2.7-43.1,0-52.9-33.5-52.9-33.5-10.2-26.5-24.9-33.6-24.9-33.6-19.5-13.7,0-14.1,1.4-14.1h0c22.5,2,34.3,23.8,34.3,23.8,11.2,19.6,26.2,25.1,39.6,25.1,8.9-.2,17.6-2.2,25.6-6,2-14.8,7.8-24.9,14.2-30.7-49.7-5.8-102-25.5-102-113.5s8.7-45.6,23-61.6c-2.3-5.8-10-29.2,2.2-60.8,1.6-.4,3.3-.6,5-.5,8.1,0,26.4,3.1,56.6,24.1,36.7-10.3,75.5-10.3,112.2,0,30.2-21,48.5-24.1,56.6-24.1s3.4,0,5,.5c12.2,31.6,4.5,55,2.2,60.8,14.3,16.1,23,36.6,23,61.6,0,88.2-52.4,107.6-102.3,113.3,8,7.1,15.2,21.1,15.2,42.5,0,30.7-.3,55.5-.3,63s3.1,11.5,11.4,11.5,2.7-.1,4-.4c89.1-30.4,153.2-116.5,153.2-217.9S379.7,32,256,32Z"/>
</svg>